# xmcd
#
# Track frame offsets:
# 150
# 18033
# 32272
# 47686
# 64186
# 76701
# 94572
# 107963
# 125311
# 137448
# 151661
# 167363
# 175752
# 198715
# 228040
# 260474
# 277940
# 297598
# 317728
#
# Disc length: 4492 seconds
#
#
# Revision: 1
# Processed by: cddbd v1.5.1PL2 Copyright (c) Steve Scherf et al.
# Submitted via: FreeRIP 2.945 
#
DISCID=e7118a13
DTITLE=LAIRTON DOS TECLADOS - GRANDES SUCESSOS
DYEAR=2004
DGENRE=BREGA
TTITLE0=MORANGO DO NORDESTE
TTITLE1=AMIGO SEU
TTITLE2=DORMI NA PRACA
TTITLE3=FONTE DE DESEJOS
TTITLE4=TORTURA DE AMOR
TTITLE5=LIGUEI PRA DIZER QUE TE AMO
TTITLE6=O RELOGIO
TTITLE7=YOLANDA
TTITLE8=PORQUE BRIGAMOS
TTITLE9=SENHORITA
TTITLE10=DESEJ0 DE MULHER
TTITLE11=VIOLA
TTITLE12=POT-POURRI NEGUE - LEMBRANCAS
TTITLE13=POT-POURRI DIANA TCHAU, TCHAU, AMOR
TTITLE14=POT POURRI CORPO E ALMA/REDEAS DO POSSANTE
TTITLE15=DESILUSAO
TTITLE16=LOUCA DE SAUDADE
TTITLE17=SEM VOCE
TTITLE18=NEM UM TOQUE
EXTD=
EXTT0=
EXTT1=
EXTT2=
EXTT3=
EXTT4=
EXTT5=
EXTT6=
EXTT7=
EXTT8=
EXTT9=
EXTT10=
EXTT11=
EXTT12=
EXTT13=
EXTT14=
EXTT15=
EXTT16=
EXTT17=
EXTT18=
PLAYORDER=
